<svg width="46" height="19" viewBox="0 0 46 19" fill="none" xmlns="http://www.w3.org/2000/svg">
<path d="M6.7164 12.744C11.2284 12.744 13.9404 10.536 13.9404 6.64801C13.9404 2.78401 11.2284 0.768005 6.7164 0.768005H-0.00360107V18H4.5324V12.744H6.7164ZM6.6924 4.58401C8.4924 4.58401 9.4284 5.35201 9.4284 6.69601C9.4284 8.01601 8.4924 8.92801 6.6924 8.92801H4.5324V4.58401H6.6924Z" fill="#1D1A20"/>
<path d="M21.7346 18.216C24.9506 18.216 27.2306 16.56 28.0226 13.608H23.9186C23.5586 14.544 22.7906 15.024 21.6386 15.024C20.3186 15.024 19.5506 14.208 19.3346 12.576H28.0946C28.8386 8.32801 25.9826 4.84801 21.7106 4.84801C17.8706 4.84801 15.0866 7.65601 15.0866 11.52C15.0866 15.528 17.7506 18.216 21.7346 18.216ZM21.6146 7.87201C22.8386 7.87201 23.6546 8.71201 23.7026 10.008H19.3826C19.6706 8.56801 20.3906 7.87201 21.6146 7.87201Z" fill="#1D1A20"/>
<path d="M38.7463 13.968C38.2903 14.256 37.6423 14.424 36.9703 14.424C35.8423 14.424 35.3143 13.848 35.3143 12.6V8.66401H38.8423V5.08801H35.3143V1.29601H31.2103V5.08801H28.8103V8.66401H31.2103V13.56C31.2103 16.512 32.9143 18.24 35.8183 18.24C36.9703 18.24 37.8343 18.048 38.7463 17.544V13.968Z" fill="#1D1A20"/>
<path d="M45.116 15.504C45.116 13.944 44.06 12.864 42.524 12.864C40.988 12.864 39.908 13.944 39.908 15.504C39.908 17.04 40.988 18.12 42.524 18.12C44.06 18.12 45.116 17.04 45.116 15.504Z" fill="#1D1A20"/>
</svg>
