<svg viewBox="0 0 20 22" fill="none">
  <path
    d="M12.2358 19.4596C12.0086 19.8513 11.6825 20.1764 11.2901 20.4024C10.8977 20.6284 10.4528 20.7473 10 20.7473C9.54719 20.7473 9.10233 20.6284 8.70995 20.4024C8.31757 20.1764 7.99145 19.8513 7.76424 19.4596M15.8249 7.07769C15.8249 5.53283 15.2112 4.05125 14.1188 2.95888C13.0264 1.8665 11.5449 1.25281 10 1.25281C8.45515 1.25281 6.97357 1.8665 5.88119 2.95888C4.78881 4.05125 4.17512 5.53283 4.17512 7.07769C4.17512 13.8734 1.26268 15.815 1.26268 15.815H18.7373C18.7373 15.815 15.8249 13.8734 15.8249 7.07769Z"
    stroke="currentColor" stroke-width="2" stroke-linecap="round" stroke-linejoin="round" />
</svg>