<svg viewBox="0 0 23 20" fill="none">
  <path
    d="M22 12C22 11.4477 21.5523 11 21 11C20.4477 11 20 11.4477 20 12H22ZM11 6C11.5523 6 12 5.55228 12 5C12 4.44772 11.5523 4 11 4V6ZM1.58579 18.4142L2.29289 17.7071L2.29289 17.7071L1.58579 18.4142ZM20.4142 18.4142L19.7071 17.7071L19.7071 17.7071L20.4142 18.4142ZM11 13L10.6286 13.9285L11.0368 14.0918L11.4331 13.9013L11 13ZM14.62 12.3699C15.1178 12.1307 15.3274 11.5332 15.0882 11.0354C14.849 10.5376 14.2515 10.328 13.7537 10.5672L14.62 12.3699ZM17 18H5V20H17V18ZM2 15V9H0V15H2ZM20 12V15H22V12H20ZM5 6H11V4H5V6ZM5 18C4.02892 18 3.40121 17.9979 2.9387 17.9357C2.50496 17.8774 2.36902 17.7832 2.29289 17.7071L0.878679 19.1213C1.38834 19.631 2.01669 19.8297 2.67221 19.9179C3.29896 20.0021 4.08546 20 5 20V18ZM0 15C0 15.9145 -0.00212374 16.701 0.0821405 17.3278C0.170272 17.9833 0.369017 18.6117 0.87868 19.1213L2.29289 17.7071C2.21677 17.631 2.12262 17.495 2.06431 17.0613C2.00212 16.5988 2 15.9711 2 15H0ZM17 20C17.9145 20 18.701 20.0021 19.3278 19.9179C19.9833 19.8297 20.6117 19.631 21.1213 19.1213L19.7071 17.7071C19.631 17.7832 19.495 17.8774 19.0613 17.9357C18.5988 17.9979 17.9711 18 17 18V20ZM20 15C20 15.9711 19.9979 16.5988 19.9357 17.0613C19.8774 17.495 19.7832 17.631 19.7071 17.7071L21.1213 19.1213C21.631 18.6117 21.8297 17.9833 21.9179 17.3278C22.0021 16.701 22 15.9145 22 15H20ZM2 9C2 8.02892 2.00212 7.40121 2.06431 6.9387C2.12262 6.50496 2.21677 6.36902 2.29289 6.29289L0.87868 4.87868C0.369017 5.38834 0.170272 6.01669 0.0821405 6.67221C-0.00212374 7.29896 0 8.08546 0 9H2ZM5 4C4.08546 4 3.29896 3.99788 2.67221 4.08214C2.01669 4.17027 1.38834 4.36902 0.87868 4.87868L2.29289 6.29289C2.36902 6.21677 2.50496 6.12262 2.9387 6.06431C3.40121 6.00212 4.02892 6 5 6V4ZM0.628609 9.92848L10.6286 13.9285L11.3714 12.0715L1.37139 8.07152L0.628609 9.92848ZM11.4331 13.9013L14.62 12.3699L13.7537 10.5672L10.5669 12.0987L11.4331 13.9013Z"
    fill="currentColor" />
  <circle cx="18" cy="5" r="5" fill="currentColor" />
</svg>