<svg viewBox="0 0 23 24" fill="none">
  <path fill-rule="evenodd" clip-rule="evenodd"
    d="M9.87291 0.665042C10.0865 0.454199 10.3401 0.286948 10.6191 0.17284C10.8982 0.058731 11.1973 0 11.4993 0C11.8014 0 12.1005 0.058731 12.3796 0.17284C12.6586 0.286948 12.9122 0.454199 13.1258 0.665042L21.9407 9.36619C22.6186 10.035 22.9996 10.9421 23 11.8882V23.027C23 23.2851 22.8961 23.5325 22.7113 23.715C22.5264 23.8975 22.2757 24 22.0143 24H14.7857C14.5243 24 14.2736 23.8975 14.0887 23.715C13.9039 23.5325 13.8 23.2851 13.8 23.027V17.1891C13.8 16.5869 13.5577 16.0095 13.1263 15.5837C12.695 15.1579 12.11 14.9187 11.5 14.9187C10.89 14.9187 10.305 15.1579 9.87365 15.5837C9.44232 16.0095 9.2 16.5869 9.2 17.1891V23.027C9.2 23.2851 9.09615 23.5325 8.91129 23.715C8.72643 23.8975 8.47571 24 8.21429 24H0.985714C0.724287 24 0.473566 23.8975 0.288709 23.715C0.103852 23.5325 0 23.2851 0 23.027V11.8882C0 10.9411 0.381143 10.0343 1.05931 9.36619L9.87291 0.665042ZM11.5 12.9727C12.6329 12.9727 13.7193 13.417 14.5204 14.2077C15.3214 14.9984 15.7714 16.0708 15.7714 17.1891V22.054H21.0286V11.8882C21.0286 11.4601 20.8551 11.0449 20.5475 10.7414L11.7326 2.0402C11.671 1.9796 11.5876 1.94557 11.5007 1.94557C11.4137 1.94557 11.3303 1.9796 11.2687 2.0402L2.45246 10.7414C2.29991 10.892 2.17892 11.0708 2.09638 11.2675C2.01385 11.4643 1.97139 11.6752 1.97143 11.8882V22.054H7.22857V17.1891C7.22857 16.0708 7.6786 14.9984 8.47964 14.2077C9.28069 13.417 10.3671 12.9727 11.5 12.9727Z"
    fill="currentColor" />
</svg>