<svg viewBox="0 0 306 233" fill="none">
  <path opacity="0.4" fill-rule="evenodd" clip-rule="evenodd"
    d="M148.068 12.8447C175.714 12.7689 206.927 -10.881 228.702 6.1877C250.639 23.3826 230.543 61.4265 242.316 86.7199C257.069 118.418 315.217 135.059 304.117 168.22C292.967 201.528 238.945 186.06 205.519 196.651C185.594 202.964 168.486 213.203 148.068 217.661C121.512 223.459 91.3983 241.899 69.0112 226.454C46.7161 211.072 60.212 174.398 49.3486 149.553C36.4687 120.096 -3.81502 101.187 0.292608 69.2902C4.31547 38.052 38.3854 17.8468 67.7544 6.62885C93.4741 -3.19523 120.544 12.9202 148.068 12.8447Z"
    fill="currentColor" />
</svg>